name rise30.8019peak61.5557fall86.2505.mot
datacolumns 19
datarows 23
range 1.08333100000000 1.12000200000000
endheader
time	ground_force1_vx	ground_force1_vy	ground_force1_vz	ground_force1_px	ground_force1_py	ground_force1_pz	ground_force2_vx	ground_force2_vy	ground_force2_vz	ground_force2_px	ground_force2_py	ground_force2_pz	ground_torque1_x	ground_torque1_y	ground_torque1_z	ground_torque2_x	ground_torque2_y	ground_torque2_z	
1.08333100000000	-5.97736200000000	46.35007000000000	-11.38558000000000	0.26545600000000	0.00000000000000	0.08298300000000	-54.49058400000000	743.25587700000005	-43.05087500000000	0.04007400000000	0.00000000000000	-0.08021100000000	0.00000000000000	-6.38775600000000	0.00000000000000	0.00000000000000	-11.18049200000000	0.00000000000000	
1.08500800000000	-6.27794400000000	52.94498600000000	-12.47461500000000	0.27102300000000	0.00000000000000	0.08378900000000	-55.33961000000000	740.63269000000003	-42.72722900000000	0.03935700000000	0.00000000000000	-0.08006000000000	0.00000000000000	-7.10428200000000	0.00000000000000	0.00000000000000	-11.22035900000000	0.00000000000000	
1.08667300000000	-6.43124300000000	59.46747200000000	-13.41043000000000	0.27611600000000	0.00000000000000	0.08453900000000	-56.20897800000000	737.91425100000004	-42.39321000000000	0.03864100000000	0.00000000000000	-0.07990500000000	0.00000000000000	-7.74977600000000	0.00000000000000	0.00000000000000	-11.26473600000000	0.00000000000000	
1.08832900000000	-6.42919700000000	65.85249800000000	-14.17641300000000	0.28078800000000	0.00000000000000	0.08524100000000	-57.09746200000000	735.09719299999995	-42.04846200000000	0.03792600000000	0.00000000000000	-0.07974900000000	0.00000000000000	-8.31220700000000	0.00000000000000	0.00000000000000	-11.31346500000000	0.00000000000000	
1.08999800000000	-6.27052900000000	72.06074400000000	-14.76551800000000	0.28508200000000	0.00000000000000	0.08590000000000	-58.00372800000000	732.17807400000004	-41.69262700000000	0.03721100000000	0.00000000000000	-0.07959000000000	0.00000000000000	-8.78496600000000	0.00000000000000	0.00000000000000	-11.36637200000000	0.00000000000000	
1.09167600000000	-5.96001100000000	78.07796500000001	-15.17951100000000	0.28903600000000	0.00000000000000	0.08652200000000	-58.92633000000000	729.15338599999995	-41.32534300000000	0.03649800000000	0.00000000000000	-0.07942900000000	0.00000000000000	-9.16662400000000	0.00000000000000	0.00000000000000	-11.42326400000000	0.00000000000000	
1.09333200000000	-5.50737300000000	83.91239700000000	-15.42762300000000	0.29268100000000	0.00000000000000	0.08711000000000	-59.86371700000000	726.01956900000005	-40.94624700000000	0.03578500000000	0.00000000000000	-0.07926500000000	0.00000000000000	-9.46029700000000	0.00000000000000	0.00000000000000	-11.48393500000000	0.00000000000000	
1.09499600000000	-4.92598300000000	89.59074699999999	-15.52481500000000	0.29604700000000	0.00000000000000	0.08766700000000	-60.81422800000000	722.77302499999996	-40.55498500000000	0.03507300000000	0.00000000000000	-0.07910000000000	0.00000000000000	-9.67274300000000	0.00000000000000	0.00000000000000	-11.54816200000000	0.00000000000000	
1.09667100000000	-4.23145500000000	95.15336700000000	-15.48987600000000	0.29915500000000	0.00000000000000	0.08819800000000	-61.77609900000000	719.41013199999998	-40.15120800000000	0.03436100000000	0.00000000000000	-0.07893200000000	0.00000000000000	-9.81331100000000	0.00000000000000	0.00000000000000	-11.61570400000000	0.00000000000000	
1.09833300000000	-3.44032200000000	100.64913799999999	-15.34353500000000	0.30202800000000	0.00000000000000	0.08870400000000	-62.74746300000000	715.92725299999995	-39.73457700000000	0.03365000000000	0.00000000000000	-0.07876200000000	0.00000000000000	-9.89285300000000	0.00000000000000	0.00000000000000	-11.68630900000000	0.00000000000000	
1.10000300000000	-2.56885500000000	106.13052800000000	-15.10674000000000	0.30468300000000	0.00000000000000	0.08918700000000	-63.72635200000000	712.32075699999996	-39.30476800000000	0.03293800000000	0.00000000000000	-0.07859100000000	0.00000000000000	-9.92270600000000	0.00000000000000	0.00000000000000	-11.75970700000000	0.00000000000000	
1.10169600000000	-1.63210300000000	111.64919999999999	-14.79920900000000	0.30713600000000	0.00000000000000	0.08965000000000	-64.71070600000000	708.58702900000003	-38.86147700000000	0.03222700000000	0.00000000000000	-0.07841700000000	0.00000000000000	-9.91380300000000	0.00000000000000	0.00000000000000	-11.83561500000000	0.00000000000000	
1.10333700000000	-0.64319300000000	117.25241300000000	-14.43832400000000	0.30940200000000	0.00000000000000	0.09009400000000	-65.69836800000000	704.72248800000000	-38.40441700000000	0.03151600000000	0.00000000000000	-0.07824200000000	0.00000000000000	-9.87596700000000	0.00000000000000	0.00000000000000	-11.91373400000000	0.00000000000000	
1.10500200000000	0.38710100000000	122.98035400000001	-14.03839400000000	0.31149200000000	0.00000000000000	0.09052000000000	-66.68709699999999	700.72360200000003	-37.93332800000000	0.03080300000000	0.00000000000000	-0.07806600000000	0.00000000000000	-9.81742100000000	0.00000000000000	0.00000000000000	-11.99375400000000	0.00000000000000	
1.10666500000000	1.45054200000000	128.86444299999999	-13.61027300000000	0.31342000000000	0.00000000000000	0.09093100000000	-67.67456600000000	696.58690400000000	-37.44797700000000	0.03009100000000	0.00000000000000	-0.07788700000000	0.00000000000000	-9.74450300000000	0.00000000000000	0.00000000000000	-12.07535200000000	0.00000000000000	
1.10833000000000	2.54138400000000	134.92656299999999	-13.16130600000000	0.31519300000000	0.00000000000000	0.09132500000000	-68.65837300000000	692.30901100000005	-36.94816000000000	0.02937700000000	0.00000000000000	-0.07770700000000	0.00000000000000	-9.66157500000000	0.00000000000000	0.00000000000000	-12.15819000000000	0.00000000000000	
1.11000300000000	3.65615900000000	141.17910900000001	-12.69554400000000	0.31682300000000	0.00000000000000	0.09170600000000	-69.63604100000001	687.88663899999995	-36.43370800000000	0.02866300000000	0.00000000000000	-0.07752600000000	0.00000000000000	-9.57110100000000	0.00000000000000	0.00000000000000	-12.24192100000000	0.00000000000000	
1.11168000000000	4.79332200000000	147.62569400000001	-12.21415800000000	0.31831600000000	0.00000000000000	0.09207300000000	-70.60503100000000	683.31662300000005	-35.90448600000000	0.02794700000000	0.00000000000000	-0.07734300000000	0.00000000000000	-9.47385800000000	0.00000000000000	0.00000000000000	-12.32618800000000	0.00000000000000	
1.11333600000000	5.95283000000000	154.26234900000000	-11.71600000000000	0.31968100000000	0.00000000000000	0.09242800000000	-71.56274200000000	678.59593600000005	-35.36040100000000	0.02722900000000	0.00000000000000	-0.07715900000000	0.00000000000000	-9.36923400000000	0.00000000000000	0.00000000000000	-12.41062200000000	0.00000000000000	
1.11500000000000	7.13567500000000	161.07902799999999	-11.19822100000000	0.32092500000000	0.00000000000000	0.09277000000000	-72.50652100000001	673.72170700000004	-34.80139700000000	0.02651000000000	0.00000000000000	-0.07697400000000	0.00000000000000	-9.25557600000000	0.00000000000000	0.00000000000000	-12.49484600000000	0.00000000000000	
1.11667500000000	8.34343900000000	168.06125200000000	-10.65690600000000	0.32205300000000	0.00000000000000	0.09310100000000	-73.43367200000000	668.69124199999999	-34.22746400000000	0.02578900000000	0.00000000000000	-0.07678800000000	0.00000000000000	-9.13056100000000	0.00000000000000	0.00000000000000	-12.57847500000000	0.00000000000000	
1.11833500000000	9.57787300000000	175.19174500000000	-10.08767100000000	0.32307200000000	0.00000000000000	0.09342100000000	-74.34145900000000	663.50203799999997	-33.63863600000000	0.02506600000000	0.00000000000000	-0.07660000000000	0.00000000000000	-8.99153900000000	0.00000000000000	0.00000000000000	-12.66111700000000	0.00000000000000	
1.12000200000000	10.84055700000000	182.45194200000000	-9.48618300000000	0.32398600000000	0.00000000000000	0.09373000000000	-75.22711900000000	658.15181099999995	-33.03499200000000	0.02434000000000	0.00000000000000	-0.07641200000000	0.00000000000000	-8.83584700000000	0.00000000000000	0.00000000000000	-12.74237500000000	0.00000000000000	
